<svg width="24" height="25" viewBox="0 0 24 25" fill="none" xmlns="http://www.w3.org/2000/svg">
<path d="M8.4 17.75L12 14.15L15.6 17.75L17 16.35L13.4 12.75L17 9.15L15.6 7.75L12 11.35L8.4 7.75L7 9.15L10.6 12.75L7 16.35L8.4 17.75ZM12 22.75C10.6167 22.75 9.31667 22.4875 8.1 21.9625C6.88333 21.4375 5.825 20.725 4.925 19.825C4.025 18.925 3.3125 17.8667 2.7875 16.65C2.2625 15.4333 2 14.1333 2 12.75C2 11.3667 2.2625 10.0667 2.7875 8.85C3.3125 7.63333 4.025 6.575 4.925 5.675C5.825 4.775 6.88333 4.0625 8.1 3.5375C9.31667 3.0125 10.6167 2.75 12 2.75C13.3833 2.75 14.6833 3.0125 15.9 3.5375C17.1167 4.0625 18.175 4.775 19.075 5.675C19.975 6.575 20.6875 7.63333 21.2125 8.85C21.7375 10.0667 22 11.3667 22 12.75C22 14.1333 21.7375 15.4333 21.2125 16.65C20.6875 17.8667 19.975 18.925 19.075 19.825C18.175 20.725 17.1167 21.4375 15.9 21.9625C14.6833 22.4875 13.3833 22.75 12 22.75ZM12 20.75C14.2333 20.75 16.125 19.975 17.675 18.425C19.225 16.875 20 14.9833 20 12.75C20 10.5167 19.225 8.625 17.675 7.075C16.125 5.525 14.2333 4.75 12 4.75C9.76667 4.75 7.875 5.525 6.325 7.075C4.775 8.625 4 10.5167 4 12.75C4 14.9833 4.775 16.875 6.325 18.425C7.875 19.975 9.76667 20.75 12 20.75Z" fill="#49454F"/>
</svg>
